<svg xmlns="http://www.w3.org/2000/svg" width="1786.282" height="1786.185" viewBox="0 0 1786.282 1786.185">
  <g id="Grupo_30" data-name="Grupo 30" transform="translate(-231.903 0.001)">
    <g id="Grupo_31" data-name="Grupo 31">
      <path id="Trazado_18" data-name="Trazado 18" d="M206.833,295.848l55.289,62.738a896.622,896.622,0,0,0,126.535-137.3l-67.136-49.879a812.851,812.851,0,0,1-114.687,124.44" transform="translate(1453.38 1204.454)" fill="#ff2600"/>
      <path id="Trazado_19" data-name="Trazado 19" d="M199.945,276.775l55.289,62.738a812.819,812.819,0,0,0,114.688-124.44l-67.145-49.879A728.589,728.589,0,0,1,199.945,276.775" transform="translate(1404.979 1160.79)" fill="#ff3b19"/>
      <path id="Trazado_20" data-name="Trazado 20" d="M193.056,257.7l55.3,62.738A728.6,728.6,0,0,0,351.184,208.86L284.04,158.981A644.4,644.4,0,0,1,193.056,257.7" transform="translate(1356.571 1117.132)" fill="#ff5132"/>
      <path id="Trazado_21" data-name="Trazado 21" d="M186.168,238.637l55.289,62.738a644.908,644.908,0,0,0,90.992-98.73L265.3,152.766a561.059,561.059,0,0,1-79.136,85.871" transform="translate(1308.17 1073.46)" fill="#ff664c"/>
      <path id="Trazado_22" data-name="Trazado 22" d="M179.28,219.564,234.569,282.3a560.652,560.652,0,0,0,79.136-85.871l-67.136-49.879a477.238,477.238,0,0,1-67.289,73.012" transform="translate(1259.77 1029.796)" fill="#ff7c65"/>
      <path id="Trazado_23" data-name="Trazado 23" d="M172.391,200.491l55.289,62.738a476.527,476.527,0,0,0,67.289-73.02l-67.136-49.871a392.691,392.691,0,0,1-55.441,60.153" transform="translate(1211.362 986.131)" fill="#ff917e"/>
      <path id="Trazado_24" data-name="Trazado 24" d="M165.5,181.426l55.289,62.738A392.736,392.736,0,0,0,276.233,184l-67.144-49.879a308.877,308.877,0,0,1-43.586,47.3" transform="translate(1162.961 942.466)" fill="#ffa797"/>
      <path id="Trazado_25" data-name="Trazado 25" d="M158.615,162.353,213.9,225.091a308.934,308.934,0,0,0,43.594-47.3L190.345,127.91a225.022,225.022,0,0,1-31.73,34.443" transform="translate(1114.56 898.802)" fill="#ffbcb1"/>
      <path id="Trazado_26" data-name="Trazado 26" d="M151.726,143.28l55.3,62.738a225.079,225.079,0,0,0,31.738-34.443L171.616,121.7a140.869,140.869,0,0,1-19.891,21.584" transform="translate(1066.152 855.137)" fill="#ffd2ca"/>
      <path id="Trazado_27" data-name="Trazado 27" d="M152.881,115.482a57.538,57.538,0,0,1-8.043,8.733l55.289,62.73a140.959,140.959,0,0,0,19.9-21.584Z" transform="translate(1017.752 811.472)" fill="#ffe7e3"/>
      <path id="Trazado_28" data-name="Trazado 28" d="M231.838,293.607l76.03,34.82A896.944,896.944,0,0,0,367.62,151.54L286,133.279a812.732,812.732,0,0,1-54.157,160.328" transform="translate(1629.086 936.529)" fill="#ff5700"/>
      <path id="Trazado_29" data-name="Trazado 29" d="M222.366,274.765l76.03,34.82a812.732,812.732,0,0,0,54.157-160.328L270.928,131a728.962,728.962,0,0,1-48.562,143.76" transform="translate(1562.528 920.55)" fill="#ff6819"/>
      <path id="Trazado_30" data-name="Trazado 30" d="M212.894,255.923l76.03,34.82a728.4,728.4,0,0,0,48.554-143.76L255.862,128.73a645.189,645.189,0,0,1-42.968,127.193" transform="translate(1495.969 904.564)" fill="#ff7832"/>
      <path id="Trazado_31" data-name="Trazado 31" d="M203.422,237.089l76.03,34.82a644.462,644.462,0,0,0,42.96-127.193l-81.625-18.261a560.769,560.769,0,0,1-37.365,110.634" transform="translate(1429.411 888.578)" fill="#ff894c"/>
      <path id="Trazado_32" data-name="Trazado 32" d="M193.95,218.247l76.03,34.821a560.769,560.769,0,0,0,37.365-110.634l-81.617-18.253a477.032,477.032,0,0,1-31.778,94.066" transform="translate(1362.853 872.599)" fill="#ff9965"/>
      <path id="Trazado_33" data-name="Trazado 33" d="M184.479,199.413l76.03,34.82a476.308,476.308,0,0,0,31.77-94.066l-81.625-18.261a393.148,393.148,0,0,1-26.175,77.507" transform="translate(1296.302 856.612)" fill="#ffaa7e"/>
      <path id="Trazado_34" data-name="Trazado 34" d="M175.007,180.571l76.03,34.82a393.078,393.078,0,0,0,26.175-77.5l-81.625-18.261a308.854,308.854,0,0,1-20.581,60.94" transform="translate(1229.744 840.626)" fill="#ffba97"/>
      <path id="Trazado_35" data-name="Trazado 35" d="M165.535,161.729l76.03,34.82a308.854,308.854,0,0,0,20.581-60.94l-81.625-18.253a225.1,225.1,0,0,1-14.986,44.372" transform="translate(1163.186 824.647)" fill="#ffcbb1"/>
      <path id="Trazado_36" data-name="Trazado 36" d="M156.063,142.895l76.03,34.828a225.173,225.173,0,0,0,14.986-44.38l-81.625-18.261a141.229,141.229,0,0,1-9.391,27.813" transform="translate(1096.628 808.661)" fill="#ffdbca"/>
      <path id="Trazado_37" data-name="Trazado 37" d="M150.388,112.808a56.778,56.778,0,0,1-3.8,11.246l76.03,34.82a141.052,141.052,0,0,0,9.391-27.813Z" transform="translate(1030.07 792.682)" fill="#ffece3"/>
      <path id="Trazado_38" data-name="Trazado 38" d="M221.1,298.82l67.128,49.871a896.888,896.888,0,0,0,95.222-160.6l-76.046-34.828A812.511,812.511,0,0,1,221.1,298.82" transform="translate(1553.66 1076.946)" fill="#ff3b00"/>
      <path id="Trazado_39" data-name="Trazado 39" d="M212.741,279.446l67.128,49.871a812.572,812.572,0,0,0,86.3-145.566l-76.046-34.828a728.673,728.673,0,0,1-77.387,130.524" transform="translate(1494.894 1046.449)" fill="#ff4e19"/>
      <path id="Trazado_40" data-name="Trazado 40" d="M204.379,260.065l67.128,49.871a728.666,728.666,0,0,0,77.387-130.524l-76.046-34.828a644.756,644.756,0,0,1-68.469,115.482" transform="translate(1436.136 1015.96)" fill="#ff6232"/>
      <path id="Trazado_41" data-name="Trazado 41" d="M196.016,240.692l67.128,49.871a644.823,644.823,0,0,0,68.469-115.49l-76.046-34.828a560.651,560.651,0,0,1-59.551,100.448" transform="translate(1377.371 985.47)" fill="#ff754c"/>
      <path id="Trazado_42" data-name="Trazado 42" d="M187.653,221.31l67.128,49.871a560.651,560.651,0,0,0,59.551-100.448L238.286,135.9a476.264,476.264,0,0,1-50.633,85.406" transform="translate(1318.605 954.981)" fill="#ff8865"/>
      <path id="Trazado_43" data-name="Trazado 43" d="M179.29,201.936l67.128,49.871a476.806,476.806,0,0,0,50.633-85.413l-76.038-34.828a392.669,392.669,0,0,1-41.724,70.371" transform="translate(1259.84 924.485)" fill="#ff9c7e"/>
      <path id="Trazado_44" data-name="Trazado 44" d="M170.927,182.556l67.128,49.871a392.95,392.95,0,0,0,41.724-70.371l-76.046-34.828a309.05,309.05,0,0,1-32.806,55.329" transform="translate(1201.075 894.002)" fill="#ffaf97"/>
      <path id="Trazado_45" data-name="Trazado 45" d="M162.564,163.182l67.128,49.871A309.05,309.05,0,0,0,262.5,157.723l-76.046-34.836a225.207,225.207,0,0,1-23.888,40.295" transform="translate(1142.309 863.506)" fill="#ffc2b1"/>
      <path id="Trazado_46" data-name="Trazado 46" d="M154.2,143.8l67.128,49.871a225.693,225.693,0,0,0,23.888-40.295l-76.046-34.828A141.038,141.038,0,0,1,154.2,143.8" transform="translate(1083.551 833.016)" fill="#ffd6ca"/>
      <path id="Trazado_47" data-name="Trazado 47" d="M151.891,114.209a56.663,56.663,0,0,1-6.052,10.21l67.128,49.871a141.038,141.038,0,0,0,14.97-25.252Z" transform="translate(1024.785 802.527)" fill="#ffe9e3"/>
      <path id="Trazado_48" data-name="Trazado 48" d="M238.564,280.417l81.609,18.253a896.179,896.179,0,0,0,21.664-185.444l-83.631-.891a812.862,812.862,0,0,1-19.642,168.082" transform="translate(1676.348 789.359)" fill="#ff7900"/>
      <path id="Trazado_49" data-name="Trazado 49" d="M228.4,262.943,310.007,281.2a812.783,812.783,0,0,0,19.634-168.082l-83.632-.891A728.917,728.917,0,0,1,228.4,262.943" transform="translate(1604.913 788.572)" fill="#ff8619"/>
      <path id="Trazado_50" data-name="Trazado 50" d="M218.231,245.463l81.609,18.253A728.91,728.91,0,0,0,317.443,113l-83.632-.883a645.025,645.025,0,0,1-15.58,133.35" transform="translate(1533.472 787.799)" fill="#ff9332"/>
      <path id="Trazado_51" data-name="Trazado 51" d="M208.064,227.99l81.609,18.253a645.025,645.025,0,0,0,15.58-133.35L221.613,112A560.593,560.593,0,0,1,208.064,227.99" transform="translate(1462.03 787.019)" fill="#ffa14c"/>
      <path id="Trazado_52" data-name="Trazado 52" d="M197.9,210.51l81.609,18.253a560.581,560.581,0,0,0,13.549-115.98l-83.64-.891A476.715,476.715,0,0,1,197.9,210.51" transform="translate(1390.588 786.246)" fill="#ffae65"/>
      <path id="Trazado_53" data-name="Trazado 53" d="M187.73,193.037l81.609,18.253a477.272,477.272,0,0,0,11.526-98.618l-83.64-.891a392.3,392.3,0,0,1-9.5,81.256" transform="translate(1319.146 785.466)" fill="#ffbb7e"/>
      <path id="Trazado_54" data-name="Trazado 54" d="M177.564,175.557l81.609,18.253a392.276,392.276,0,0,0,9.488-81.256l-83.631-.883a308.9,308.9,0,0,1-7.465,63.885" transform="translate(1247.712 784.693)" fill="#ffc897"/>
      <path id="Trazado_55" data-name="Trazado 55" d="M167.4,158.083l81.609,18.253a308.875,308.875,0,0,0,7.457-63.885l-83.631-.891a225.018,225.018,0,0,1-5.434,46.523" transform="translate(1176.27 783.913)" fill="#ffd6b1"/>
      <path id="Trazado_56" data-name="Trazado 56" d="M157.23,140.6l81.609,18.253a225.57,225.57,0,0,0,5.434-46.524l-83.64-.883a141.124,141.124,0,0,1-3.4,29.153" transform="translate(1104.828 783.133)" fill="#ffe3ca"/>
      <path id="Trazado_57" data-name="Trazado 57" d="M148.437,111.338a57.243,57.243,0,0,1-1.373,11.791l81.609,18.253a141.115,141.115,0,0,0,3.4-29.153Z" transform="translate(1033.393 782.353)" fill="#fff0e3"/>
      <path id="Trazado_58" data-name="Trazado 58" d="M254.763,274.3l83.624.891a896.938,896.938,0,0,0-17.37-185.9L239.03,105.8A813.321,813.321,0,0,1,254.763,274.3" transform="translate(1679.623 627.39)" fill="#ff8700"/>
      <path id="Trazado_59" data-name="Trazado 59" d="M242.926,258.944l83.615.891A812.22,812.22,0,0,0,310.809,91.344l-81.994,16.519a729.153,729.153,0,0,1,14.111,151.081" transform="translate(1607.844 641.859)" fill="#ff9319"/>
      <path id="Trazado_60" data-name="Trazado 60" d="M231.09,243.6l83.615.891A728.2,728.2,0,0,0,300.594,93.4L218.6,109.92A644.082,644.082,0,0,1,231.09,243.6" transform="translate(1536.065 656.313)" fill="#ff9f32"/>
      <path id="Trazado_61" data-name="Trazado 61" d="M219.245,228.247l83.615.891A644.528,644.528,0,0,0,290.379,95.459l-81.994,16.519a560.473,560.473,0,0,1,10.86,116.269" transform="translate(1464.285 670.774)" fill="#ffab4c"/>
      <path id="Trazado_62" data-name="Trazado 62" d="M207.4,212.9l83.616.891a560.421,560.421,0,0,0-10.86-116.269l-81.986,16.519A476.864,476.864,0,0,1,207.4,212.9" transform="translate(1392.514 685.242)" fill="#ffb765"/>
      <path id="Trazado_63" data-name="Trazado 63" d="M195.564,197.543l83.615.891a476.811,476.811,0,0,0-9.231-98.858L187.955,116.1a392.7,392.7,0,0,1,7.609,81.448" transform="translate(1320.727 699.703)" fill="#ffc27e"/>
      <path id="Trazado_64" data-name="Trazado 64" d="M183.721,182.2l83.624.891a393.331,393.331,0,0,0-7.617-81.456l-81.986,16.519a309.206,309.206,0,0,1,5.98,64.046" transform="translate(1248.955 714.158)" fill="#ffce97"/>
      <path id="Trazado_65" data-name="Trazado 65" d="M171.884,166.847l83.623.891a309.206,309.206,0,0,0-5.988-64.046l-81.994,16.519a225.054,225.054,0,0,1,4.359,46.636" transform="translate(1177.169 728.626)" fill="#ffdab1"/>
      <path id="Trazado_66" data-name="Trazado 66" d="M160.04,151.495l83.623.891a225.063,225.063,0,0,0-4.359-46.636l-81.994,16.519a141.507,141.507,0,0,1,2.729,29.226" transform="translate(1105.397 743.087)" fill="#ffe6ca"/>
      <path id="Trazado_67" data-name="Trazado 67" d="M147.1,124.327a56.78,56.78,0,0,1,1.108,11.815l83.616.891a140.407,140.407,0,0,0-2.729-29.226Z" transform="translate(1033.618 757.548)" fill="#fff2e3"/>
      <path id="Trazado_68" data-name="Trazado 68" d="M283.153,261.832l81.978-16.519A897.083,897.083,0,0,0,309.5,67.085l-76.769,33.207a812.434,812.434,0,0,1,50.425,161.54" transform="translate(1635.339 471.395)" fill="#ff9300"/>
      <path id="Trazado_69" data-name="Trazado 69" d="M268.379,249.274l81.978-16.519A812.878,812.878,0,0,0,299.932,71.223l-76.768,33.2a728.491,728.491,0,0,1,45.215,144.852" transform="translate(1568.135 500.472)" fill="#ff9e19"/>
      <path id="Trazado_70" data-name="Trazado 70" d="M253.606,236.723,335.584,220.2A729.3,729.3,0,0,0,290.369,75.36L213.6,108.567a644.83,644.83,0,0,1,40.006,128.156" transform="translate(1500.93 529.542)" fill="#ffa832"/>
      <path id="Trazado_71" data-name="Trazado 71" d="M238.832,224.172l81.978-16.519A644.829,644.829,0,0,0,280.8,79.5L204.036,112.7a560.7,560.7,0,0,1,34.8,111.469" transform="translate(1433.726 558.605)" fill="#ffb34c"/>
      <path id="Trazado_72" data-name="Trazado 72" d="M224.06,211.621,306.038,195.1a560.706,560.706,0,0,0-34.8-111.469L194.473,116.84a476.585,476.585,0,0,1,29.587,94.781" transform="translate(1366.528 587.675)" fill="#ffbe65"/>
      <path id="Trazado_73" data-name="Trazado 73" d="M209.287,199.063l81.978-16.519a476.51,476.51,0,0,0-29.587-94.773l-76.769,33.2a392.99,392.99,0,0,1,24.378,78.093" transform="translate(1299.324 616.752)" fill="#ffc87e"/>
      <path id="Trazado_74" data-name="Trazado 74" d="M194.513,186.511l81.978-16.519a393.08,393.08,0,0,0-24.378-78.085l-76.769,33.207a308.972,308.972,0,0,1,19.168,61.4" transform="translate(1232.119 645.815)" fill="#ffd397"/>
      <path id="Trazado_75" data-name="Trazado 75" d="M179.74,173.96l81.978-16.519a308.972,308.972,0,0,0-19.168-61.4l-76.769,33.207A224.852,224.852,0,0,1,179.74,173.96" transform="translate(1164.915 674.885)" fill="#ffdeb1"/>
      <path id="Trazado_76" data-name="Trazado 76" d="M164.966,161.41l81.978-16.519a224.326,224.326,0,0,0-13.959-44.709l-76.769,33.207a140.729,140.729,0,0,1,8.749,28.022" transform="translate(1097.71 703.955)" fill="#ffe8ca"/>
      <path id="Trazado_77" data-name="Trazado 77" d="M146.654,137.525a56.7,56.7,0,0,1,3.532,11.326l81.986-16.511a140.229,140.229,0,0,0-8.757-28.022Z" transform="translate(1030.512 733.025)" fill="#fff3e3"/>
      <path id="Trazado_78" data-name="Trazado 78" d="M305.289,242.784l76.753-33.2A897.285,897.285,0,0,0,290.568,46.817L222.38,95.259a812.986,812.986,0,0,1,82.909,147.525" transform="translate(1562.626 328.975)" fill="#ffb200"/>
      <path id="Trazado_79" data-name="Trazado 79" d="M288.23,233.576l76.752-33.2A812.917,812.917,0,0,0,282.073,52.852l-68.188,48.442A728.635,728.635,0,0,1,288.23,233.576" transform="translate(1502.933 371.382)" fill="#ffba19"/>
      <path id="Trazado_80" data-name="Trazado 80" d="M271.17,224.368l76.753-33.2A728.635,728.635,0,0,0,273.578,58.887L205.39,107.329a644.533,644.533,0,0,1,65.78,117.039" transform="translate(1443.24 413.789)" fill="#ffc132"/>
      <path id="Trazado_81" data-name="Trazado 81" d="M254.11,215.16l76.753-33.2A644.983,644.983,0,0,0,265.091,64.922l-68.2,48.442a559.976,559.976,0,0,1,57.215,101.8" transform="translate(1383.547 456.196)" fill="#ffc94c"/>
      <path id="Trazado_82" data-name="Trazado 82" d="M237.045,205.952l76.752-33.2a560.939,560.939,0,0,0-57.215-101.8L188.4,119.4a476.825,476.825,0,0,1,48.643,86.553" transform="translate(1323.868 498.603)" fill="#ffd065"/>
      <path id="Trazado_83" data-name="Trazado 83" d="M219.985,196.744l76.753-33.2a476.864,476.864,0,0,0-48.651-86.553l-68.18,48.442a392.72,392.72,0,0,1,40.078,71.31" transform="translate(1264.175 541.009)" fill="#ffd87e"/>
      <path id="Trazado_84" data-name="Trazado 84" d="M202.925,187.543l76.752-33.2a392.616,392.616,0,0,0-40.086-71.318l-68.18,48.442a308.985,308.985,0,0,1,31.513,56.075" transform="translate(1204.483 583.409)" fill="#ffdf97"/>
      <path id="Trazado_85" data-name="Trazado 85" d="M185.866,178.335l76.753-33.2A308.714,308.714,0,0,0,231.1,89.061L162.917,137.5a224.9,224.9,0,0,1,22.949,40.832" transform="translate(1144.79 625.816)" fill="#ffe7b1"/>
      <path id="Trazado_86" data-name="Trazado 86" d="M168.806,169.127l76.752-33.2A225.11,225.11,0,0,0,222.61,95.1l-68.188,48.442a140.552,140.552,0,0,1,14.384,25.59" transform="translate(1085.097 668.223)" fill="#ffeeca"/>
      <path id="Trazado_87" data-name="Trazado 87" d="M145.928,149.573a56.717,56.717,0,0,1,5.819,10.347l76.753-33.2a141.025,141.025,0,0,0-14.384-25.59Z" transform="translate(1025.411 710.63)" fill="#fff6e3"/>
      <path id="Trazado_88" data-name="Trazado 88" d="M320.2,217.987l68.172-48.434A897.059,897.059,0,0,0,265.06,29.365L208.439,90.923A812.5,812.5,0,0,1,320.2,217.987" transform="translate(1464.665 206.343)" fill="#ffd000"/>
      <path id="Trazado_89" data-name="Trazado 89" d="M301.607,212.525l68.172-48.434A812.492,812.492,0,0,0,258.005,37.034L201.384,98.592A727.941,727.941,0,0,1,301.607,212.525" transform="translate(1415.091 260.232)" fill="#ffd519"/>
      <path id="Trazado_90" data-name="Trazado 90" d="M283,207.07l68.172-48.434A728.719,728.719,0,0,0,250.951,44.7L194.33,106.261A645.357,645.357,0,0,1,283,207.07" transform="translate(1365.523 314.12)" fill="#ffd932"/>
      <path id="Trazado_91" data-name="Trazado 91" d="M264.406,201.608l68.172-48.434a644.937,644.937,0,0,0-88.672-100.8l-56.629,61.558a560.842,560.842,0,0,1,77.13,87.677" transform="translate(1315.956 368.016)" fill="#ffde4c"/>
      <path id="Trazado_92" data-name="Trazado 92" d="M245.8,196.153l68.172-48.434a560.842,560.842,0,0,0-77.13-87.677L180.222,121.6A477.012,477.012,0,0,1,245.8,196.153" transform="translate(1266.389 421.905)" fill="#ffe365"/>
      <path id="Trazado_93" data-name="Trazado 93" d="M227.2,190.7l68.172-48.434A477.012,477.012,0,0,0,229.789,67.71l-56.621,61.566A392.869,392.869,0,0,1,227.2,190.7" transform="translate(1216.822 475.786)" fill="#ffe77e"/>
      <path id="Trazado_94" data-name="Trazado 94" d="M208.6,185.235,276.771,136.8A392.868,392.868,0,0,0,222.734,75.38l-56.621,61.558a309.137,309.137,0,0,1,42.486,48.3" transform="translate(1167.247 529.682)" fill="#ffec97"/>
      <path id="Trazado_95" data-name="Trazado 95" d="M189.994,179.773l68.172-48.434A309.074,309.074,0,0,0,215.68,83.05l-56.621,61.558a225.305,225.305,0,0,1,30.935,35.166" transform="translate(1117.68 583.578)" fill="#fff1b1"/>
      <path id="Trazado_96" data-name="Trazado 96" d="M171.4,174.317l68.172-48.434a225.307,225.307,0,0,0-30.935-35.165L152,152.276A140.792,140.792,0,0,1,171.4,174.317" transform="translate(1068.106 637.46)" fill="#fff5ca"/>
      <path id="Trazado_97" data-name="Trazado 97" d="M144.95,159.946a56.963,56.963,0,0,1,7.842,8.91l68.172-48.434a141.5,141.5,0,0,0-19.393-22.034Z" transform="translate(1018.539 691.356)" fill="#fffae3"/>
      <path id="Trazado_98" data-name="Trazado 98" d="M327.256,188.526l56.613-61.55A896.846,896.846,0,0,0,234.1,15.492l-42.59,71.985a812.45,812.45,0,0,1,135.742,101.05" transform="translate(1345.736 108.86)" fill="#ffdf00"/>
      <path id="Trazado_99" data-name="Trazado 99" d="M307.927,187.052,364.54,125.5A812.839,812.839,0,0,0,228.8,24.461l-42.59,71.985a728.43,728.43,0,0,1,121.719,90.607" transform="translate(1308.451 171.883)" fill="#ffe219"/>
      <path id="Trazado_100" data-name="Trazado 100" d="M288.6,185.585l56.613-61.55A728.763,728.763,0,0,0,223.492,33.428L180.9,105.421a644.637,644.637,0,0,1,107.7,80.164" transform="translate(1271.167 234.893)" fill="#ffe532"/>
      <path id="Trazado_101" data-name="Trazado 101" d="M269.269,184.111l56.613-61.542A645.131,645.131,0,0,0,218.186,42.4L175.6,114.382a560.449,560.449,0,0,1,93.673,69.729" transform="translate(1233.883 297.916)" fill="#ffe84c"/>
      <path id="Trazado_102" data-name="Trazado 102" d="M249.941,182.637,306.554,121.1a560.221,560.221,0,0,0-93.673-69.729l-42.59,71.985a476.661,476.661,0,0,1,79.65,59.286" transform="translate(1196.605 360.94)" fill="#ffeb65"/>
      <path id="Trazado_103" data-name="Trazado 103" d="M230.605,181.169l56.613-61.55a476.658,476.658,0,0,0-79.65-59.286l-42.582,71.993a392.476,392.476,0,0,1,65.619,48.843" transform="translate(1159.328 423.95)" fill="#ffef7e"/>
      <path id="Trazado_104" data-name="Trazado 104" d="M211.276,179.695l56.613-61.55A393.248,393.248,0,0,0,202.27,69.3l-42.59,71.985a309.616,309.616,0,0,1,51.6,38.408" transform="translate(1122.044 486.973)" fill="#fff297"/>
      <path id="Trazado_105" data-name="Trazado 105" d="M191.948,178.22l56.613-61.55a309.122,309.122,0,0,0-51.6-38.4l-42.59,71.985a225.154,225.154,0,0,1,37.574,27.966" transform="translate(1084.759 549.99)" fill="#fff5b1"/>
      <path id="Trazado_106" data-name="Trazado 106" d="M172.612,176.753l56.613-61.55a225.154,225.154,0,0,0-37.574-27.966l-42.582,71.993a140.974,140.974,0,0,1,23.543,17.523" transform="translate(1047.482 613.006)" fill="#fff8ca"/>
      <path id="Trazado_107" data-name="Trazado 107" d="M143.763,168.2a56.96,56.96,0,0,1,9.528,7.088l56.605-61.55a141.026,141.026,0,0,0-23.543-17.531Z" transform="translate(1010.198 676.023)" fill="#fffbe3"/>
      <path id="Trazado_108" data-name="Trazado 108" d="M326.13,155.69l42.582-71.969A896.217,896.217,0,0,0,199.033,5.805L172.344,85.07A813.042,813.042,0,0,1,326.13,155.69" transform="translate(1211.031 40.791)" fill="#ffed00"/>
      <path id="Trazado_109" data-name="Trazado 109" d="M306.92,158.269,349.5,86.3A812.374,812.374,0,0,0,195.708,15.68L169.019,94.945a728.975,728.975,0,0,1,137.9,63.324" transform="translate(1187.667 110.181)" fill="#ffef19"/>
      <path id="Trazado_110" data-name="Trazado 110" d="M287.7,160.848,330.276,88.88A728.629,728.629,0,0,0,192.383,25.556l-26.689,79.265A645.524,645.524,0,0,1,287.7,160.848" transform="translate(1164.303 179.578)" fill="#fff132"/>
      <path id="Trazado_111" data-name="Trazado 111" d="M268.492,163.427l42.574-71.969A644.062,644.062,0,0,0,189.058,35.431L162.369,114.7a560.445,560.445,0,0,1,106.123,48.731" transform="translate(1140.939 248.968)" fill="#fff24c"/>
      <path id="Trazado_112" data-name="Trazado 112" d="M249.274,166.006l42.582-71.969A560.678,560.678,0,0,0,185.733,45.307l-26.689,79.265a477.276,477.276,0,0,1,90.229,41.435" transform="translate(1117.575 318.364)" fill="#fff465"/>
      <path id="Trazado_113" data-name="Trazado 113" d="M230.063,168.585l42.582-71.969a476.61,476.61,0,0,0-90.237-41.435l-26.689,79.265a392.928,392.928,0,0,1,74.344,34.138" transform="translate(1094.211 387.754)" fill="#fff67e"/>
      <path id="Trazado_114" data-name="Trazado 114" d="M210.845,171.165l42.582-71.977a393.12,393.12,0,0,0-74.344-34.13l-26.689,79.265a308.753,308.753,0,0,1,58.451,26.842" transform="translate(1070.846 457.151)" fill="#fff897"/>
      <path id="Trazado_115" data-name="Trazado 115" d="M191.634,173.743l42.582-71.969a308.826,308.826,0,0,0-58.459-26.842L149.068,154.2a225.418,225.418,0,0,1,42.566,19.545" transform="translate(1047.475 526.541)" fill="#fff9b1"/>
      <path id="Trazado_116" data-name="Trazado 116" d="M172.424,176.315,215,104.346a224.149,224.149,0,0,0-42.566-19.537l-26.689,79.257a141.067,141.067,0,0,1,26.681,12.249" transform="translate(1024.111 595.938)" fill="#fffbca"/>
      <path id="Trazado_117" data-name="Trazado 117" d="M142.418,173.956a56.655,56.655,0,0,1,10.788,4.953l42.582-71.977a141.067,141.067,0,0,0-26.681-12.249Z" transform="translate(1000.747 665.321)" fill="#fffde3"/>
      <path id="Trazado_118" data-name="Trazado 118" d="M316.88,120.913l26.681-79.249A896.655,896.655,0,0,0,161.4.727l-9.632,83.086a812.517,812.517,0,0,1,165.112,37.1" transform="translate(1066.448 5.109)" fill="#dced00"/>
      <path id="Trazado_119" data-name="Trazado 119" d="M298.616,127.427,325.3,48.178a812.029,812.029,0,0,0-165.1-37.1l-9.624,83.078a728.62,728.62,0,0,1,148.047,33.271" transform="translate(1058.022 77.843)" fill="#dfef19"/>
      <path id="Trazado_120" data-name="Trazado 120" d="M280.36,133.948,307.041,54.7A728.5,728.5,0,0,0,158.994,21.428l-9.624,83.086a645.065,645.065,0,0,1,130.99,29.434" transform="translate(1049.597 150.571)" fill="#e3f132"/>
      <path id="Trazado_121" data-name="Trazado 121" d="M262.1,140.463l26.681-79.249A643.991,643.991,0,0,0,157.794,31.78l-9.624,83.086a560.973,560.973,0,0,1,113.933,25.6" transform="translate(1041.165 223.313)" fill="#e6f24c"/>
      <path id="Trazado_122" data-name="Trazado 122" d="M243.847,146.984l26.681-79.249A560.457,560.457,0,0,0,156.6,42.13l-9.624,83.086a477.025,477.025,0,0,1,96.876,21.769" transform="translate(1032.74 296.04)" fill="#eaf465"/>
      <path id="Trazado_123" data-name="Trazado 123" d="M225.591,153.5l26.681-79.249A476.415,476.415,0,0,0,155.4,52.482l-9.632,83.086A392.94,392.94,0,0,1,225.591,153.5" transform="translate(1024.315 368.782)" fill="#edf67e"/>
      <path id="Trazado_124" data-name="Trazado 124" d="M207.327,160.014l26.689-79.249A392.521,392.521,0,0,0,154.2,62.833l-9.624,83.078a308.913,308.913,0,0,1,62.754,14.1" transform="translate(1015.89 441.517)" fill="#f1f897"/>
      <path id="Trazado_125" data-name="Trazado 125" d="M189.071,166.535l26.681-79.249A308.913,308.913,0,0,0,153,73.183l-9.624,83.086a224.948,224.948,0,0,1,45.7,10.266" transform="translate(1007.464 514.244)" fill="#f4f9b1"/>
      <path id="Trazado_126" data-name="Trazado 126" d="M170.814,173.05,197.495,93.8a224.824,224.824,0,0,0-45.7-10.266l-9.624,83.086a140.856,140.856,0,0,1,28.64,6.429" transform="translate(999.032 586.986)" fill="#f8fbca"/>
      <path id="Trazado_127" data-name="Trazado 127" d="M140.975,176.971a56.788,56.788,0,0,1,11.583,2.6l26.681-79.249a140.88,140.88,0,0,0-28.64-6.437Z" transform="translate(990.607 659.714)" fill="#fbfde3"/>
      <path id="Trazado_128" data-name="Trazado 128" d="M306.778,89.083,316.4,6.014a896.742,896.742,0,0,0-186.7-2.159l7.858,83.27a812.834,812.834,0,0,1,169.214,1.959" transform="translate(911.422 -0.001)" fill="#badf00"/>
      <path id="Trazado_129" data-name="Trazado 129" d="M290.274,98.94,299.9,15.87a812.828,812.828,0,0,0-169.214-1.959l7.858,83.27A728.923,728.923,0,0,1,290.274,98.94" transform="translate(918.301 73.211)" fill="#c1e219"/>
      <path id="Trazado_130" data-name="Trazado 130" d="M273.771,108.8l9.624-83.07a728.923,728.923,0,0,0-151.731-1.758l7.858,83.27A645.015,645.015,0,0,1,273.771,108.8" transform="translate(925.18 146.425)" fill="#c8e532"/>
      <path id="Trazado_131" data-name="Trazado 131" d="M257.268,118.65l9.624-83.07a645.567,645.567,0,0,0-134.249-1.557l7.858,83.27a561.106,561.106,0,0,1,116.766,1.357" transform="translate(932.06 219.641)" fill="#cee84c"/>
      <path id="Trazado_132" data-name="Trazado 132" d="M240.764,128.507l9.624-83.07a560.555,560.555,0,0,0-116.766-1.349l7.858,83.27a476.644,476.644,0,0,1,99.284,1.148" transform="translate(938.939 292.845)" fill="#d5eb65"/>
      <path id="Trazado_133" data-name="Trazado 133" d="M224.261,138.361l9.624-83.07A477.2,477.2,0,0,0,134.6,54.143l7.858,83.27a392.736,392.736,0,0,1,81.8.947" transform="translate(945.818 366.061)" fill="#dcef7e"/>
      <path id="Trazado_134" data-name="Trazado 134" d="M207.757,148.217l9.624-83.07a393.289,393.289,0,0,0-81.8-.947l7.858,83.27a309.376,309.376,0,0,1,64.319.747" transform="translate(952.697 439.275)" fill="#e3f297"/>
      <path id="Trazado_135" data-name="Trazado 135" d="M191.254,158.073,200.878,75a308.818,308.818,0,0,0-64.319-.739l7.858,83.27a224.913,224.913,0,0,1,46.837.538" transform="translate(959.577 512.489)" fill="#e9f5b1"/>
      <path id="Trazado_136" data-name="Trazado 136" d="M174.75,167.929l9.624-83.07a224.913,224.913,0,0,0-46.837-.538l7.858,83.27a141.008,141.008,0,0,1,29.354.337" transform="translate(966.456 585.702)" fill="#f0f8ca"/>
      <path id="Trazado_137" data-name="Trazado 137" d="M146.375,177.651a57.1,57.1,0,0,1,11.872.136l9.624-83.07a140.457,140.457,0,0,0-29.354-.337Z" transform="translate(973.335 658.913)" fill="#f7fbe3"/>
      <path id="Trazado_138" data-name="Trazado 138" d="M297.827,83.756,289.969.5A896.379,896.379,0,0,0,106.9,37.2l25,79.819A812.407,812.407,0,0,1,297.827,83.756" transform="translate(751.175 3.527)" fill="#70c700"/>
      <path id="Trazado_139" data-name="Trazado 139" d="M283.8,94.128l-7.858-83.254A812.946,812.946,0,0,0,110.015,44.137l25,79.819A728.865,728.865,0,0,1,283.8,94.128" transform="translate(773.056 76.41)" fill="#7ecd19"/>
      <path id="Trazado_140" data-name="Trazado 140" d="M269.766,104.5l-7.858-83.254A728.865,728.865,0,0,0,113.13,51.074l25,79.819A644.535,644.535,0,0,1,269.766,104.5" transform="translate(794.945 149.292)" fill="#8cd232"/>
      <path id="Trazado_141" data-name="Trazado 141" d="M255.742,114.872l-7.858-83.254A644.535,644.535,0,0,0,116.244,58.01l25,79.819a560.35,560.35,0,0,1,114.495-22.957" transform="translate(816.827 222.174)" fill="#9ad84c"/>
      <path id="Trazado_142" data-name="Trazado 142" d="M241.712,125.244,233.854,41.99A560.35,560.35,0,0,0,119.359,64.947l25,79.819a476.374,476.374,0,0,1,97.349-19.521" transform="translate(838.715 295.057)" fill="#a8dd65"/>
      <path id="Trazado_143" data-name="Trazado 143" d="M227.682,135.616l-7.858-83.254a476.906,476.906,0,0,0-97.349,19.513l25,79.819a392.472,392.472,0,0,1,80.212-16.078" transform="translate(860.604 367.939)" fill="#b7e37e"/>
      <path id="Trazado_144" data-name="Trazado 144" d="M213.651,145.988l-7.858-83.254a393.478,393.478,0,0,0-80.2,16.078l25,79.827a308.5,308.5,0,0,1,63.067-12.65" transform="translate(882.492 440.821)" fill="#c5e897"/>
      <path id="Trazado_145" data-name="Trazado 145" d="M199.628,156.36,191.77,73.106A309.041,309.041,0,0,0,128.7,85.756l25,79.811a224.961,224.961,0,0,1,45.922-9.207" transform="translate(904.374 513.703)" fill="#d3eeb1"/>
      <path id="Trazado_146" data-name="Trazado 146" d="M185.6,166.732l-7.866-83.254a225,225,0,0,0-45.913,9.207l25,79.819a140.953,140.953,0,0,1,28.784-5.771" transform="translate(926.262 586.586)" fill="#e1f3ca"/>
      <path id="Trazado_147" data-name="Trazado 147" d="M159.935,179.44a56.982,56.982,0,0,1,11.639-2.336L163.716,93.85a141.064,141.064,0,0,0-28.784,5.771Z" transform="translate(948.144 659.468)" fill="#eff9e3"/>
      <path id="Trazado_148" data-name="Trazado 148" d="M281.983,84.9l-25-79.8A896.983,896.983,0,0,0,85.55,79.055L126.6,151.931A812.518,812.518,0,0,1,281.983,84.9" transform="translate(601.145 35.809)" fill="#3bbe00"/>
      <path id="Trazado_149" data-name="Trazado 149" d="M271.043,94.841l-25-79.8A812.518,812.518,0,0,0,90.664,82.07l41.049,72.876a728.774,728.774,0,0,1,139.33-60.1" transform="translate(637.08 105.669)" fill="#4ec419"/>
      <path id="Trazado_150" data-name="Trazado 150" d="M260.1,104.782l-25-79.8A728.8,728.8,0,0,0,95.777,85.092l41.049,72.876A644.328,644.328,0,0,1,260.1,104.782" transform="translate(673.008 175.523)" fill="#62cb32"/>
      <path id="Trazado_151" data-name="Trazado 151" d="M249.163,114.724l-25-79.8A644.834,644.834,0,0,0,100.891,88.107l41.049,72.876a560.873,560.873,0,0,1,107.222-46.259" transform="translate(708.944 245.384)" fill="#75d14c"/>
      <path id="Trazado_152" data-name="Trazado 152" d="M238.223,124.666l-25-79.8A561.093,561.093,0,0,0,106.005,91.122L147.054,164a477.128,477.128,0,0,1,91.169-39.331" transform="translate(744.879 315.245)" fill="#88d865"/>
      <path id="Trazado_153" data-name="Trazado 153" d="M227.283,134.608l-25-79.8a477.128,477.128,0,0,0-91.169,39.331l41.049,72.876a393.17,393.17,0,0,1,75.115-32.4" transform="translate(780.814 385.105)" fill="#9cde7e"/>
      <path id="Trazado_154" data-name="Trazado 154" d="M216.344,144.549l-25-79.8a392.69,392.69,0,0,0-75.115,32.412l41.049,72.868a309.2,309.2,0,0,1,59.061-25.477" transform="translate(816.749 454.959)" fill="#afe597"/>
      <path id="Trazado_155" data-name="Trazado 155" d="M205.4,154.491l-25-79.8a308.718,308.718,0,0,0-59.061,25.485L162.4,173.049A224.978,224.978,0,0,1,205.4,154.491" transform="translate(852.684 524.82)" fill="#c2ebb1"/>
      <path id="Trazado_156" data-name="Trazado 156" d="M194.464,164.433l-25-79.8a224.755,224.755,0,0,0-43.008,18.558l41.049,72.876a141.011,141.011,0,0,1,26.954-11.631" transform="translate(888.62 594.68)" fill="#d6f2ca"/>
      <path id="Trazado_157" data-name="Trazado 157" d="M172.624,179.078a56.342,56.342,0,0,1,10.9-4.7l-25-79.8A140.8,140.8,0,0,0,131.575,106.2Z" transform="translate(924.555 664.541)" fill="#e9f8e3"/>
      <path id="Trazado_158" data-name="Trazado 158" d="M259.943,87.19,218.9,14.33A896.632,896.632,0,0,0,66.585,122.315l55.3,62.746A813.047,813.047,0,0,1,259.943,87.19" transform="translate(467.881 100.694)" fill="#00b600"/>
      <path id="Trazado_159" data-name="Trazado 159" d="M252.563,96.267l-41.041-72.86A812.662,812.662,0,0,0,73.476,121.278l55.3,62.754a728.286,728.286,0,0,1,123.79-87.765" transform="translate(516.303 164.477)" fill="#19bd19"/>
      <path id="Trazado_160" data-name="Trazado 160" d="M245.2,105.344l-41.041-72.86a728.6,728.6,0,0,0-123.79,87.765L135.67,183A645.018,645.018,0,0,1,245.2,105.344" transform="translate(564.711 228.259)" fill="#32c432"/>
      <path id="Trazado_161" data-name="Trazado 161" d="M237.814,114.421l-41.041-72.86A644.631,644.631,0,0,0,87.255,119.213l55.3,62.746a560.989,560.989,0,0,1,95.262-67.538" transform="translate(613.126 292.042)" fill="#4ccc4c"/>
      <path id="Trazado_162" data-name="Trazado 162" d="M230.448,123.5,189.406,50.638a560.989,560.989,0,0,0-95.262,67.538l55.3,62.746a476.638,476.638,0,0,1,81-57.424" transform="translate(661.534 355.824)" fill="#65d365"/>
      <path id="Trazado_163" data-name="Trazado 163" d="M223.074,132.574,182.033,59.715a476.638,476.638,0,0,0-81,57.424l55.3,62.754a392.96,392.96,0,0,1,66.735-47.318" transform="translate(709.948 419.607)" fill="#7eda7e"/>
      <path id="Trazado_164" data-name="Trazado 164" d="M215.7,141.652l-41.041-72.86a392.96,392.96,0,0,0-66.735,47.318l55.3,62.746a308.93,308.93,0,0,1,52.471-37.2" transform="translate(758.363 483.39)" fill="#97e197"/>
      <path id="Trazado_165" data-name="Trazado 165" d="M208.327,150.729,167.285,77.87a308.927,308.927,0,0,0-52.471,37.2l55.3,62.746a225.027,225.027,0,0,1,38.208-27.091" transform="translate(806.778 547.179)" fill="#b1e9b1"/>
      <path id="Trazado_166" data-name="Trazado 166" d="M200.953,159.807l-41.041-72.86A225.027,225.027,0,0,0,121.7,114.038l55.3,62.746a140.676,140.676,0,0,1,23.944-16.977" transform="translate(855.193 610.962)" fill="#caf0ca"/>
      <path id="Trazado_167" data-name="Trazado 167" d="M183.9,175.753a57.455,57.455,0,0,1,9.68-6.871L152.538,96.023a141.8,141.8,0,0,0-23.944,16.985Z" transform="translate(903.608 674.737)" fill="#e3f7e3"/>
      <path id="Trazado_168" data-name="Trazado 168" d="M232.661,90.538,177.372,27.8A896.62,896.62,0,0,0,50.837,165.1l67.136,49.879A812.855,812.855,0,0,1,232.661,90.538" transform="translate(357.223 195.346)" fill="#00bd4f"/>
      <path id="Trazado_169" data-name="Trazado 169" d="M229.177,98.354,173.888,35.616A812.452,812.452,0,0,0,59.2,160.056l67.144,49.879A728.594,728.594,0,0,1,229.177,98.354" transform="translate(415.995 250.267)" fill="#19c460"/>
      <path id="Trazado_170" data-name="Trazado 170" d="M225.694,106.169,170.406,43.431A729.025,729.025,0,0,0,67.566,155.012l67.144,49.879a645.174,645.174,0,0,1,90.984-98.722" transform="translate(474.775 305.182)" fill="#32ca72"/>
      <path id="Trazado_171" data-name="Trazado 171" d="M222.211,113.985l-55.3-62.738a645.253,645.253,0,0,0-90.984,98.73l67.144,49.879a561.049,561.049,0,0,1,79.136-85.871" transform="translate(533.547 360.104)" fill="#4cd183"/>
      <path id="Trazado_172" data-name="Trazado 172" d="M218.72,121.8,163.432,59.063A561.049,561.049,0,0,0,84.3,144.934l67.136,49.879A476.883,476.883,0,0,1,218.72,121.8" transform="translate(592.326 415.026)" fill="#65d794"/>
      <path id="Trazado_173" data-name="Trazado 173" d="M215.238,129.616l-55.3-62.738A477.2,477.2,0,0,0,92.66,139.89L159.8,189.769a392.672,392.672,0,0,1,55.441-60.153" transform="translate(651.106 469.94)" fill="#7edea6"/>
      <path id="Trazado_174" data-name="Trazado 174" d="M211.754,137.432,156.465,74.694a393.093,393.093,0,0,0-55.441,60.161l67.144,49.879a308.872,308.872,0,0,1,43.586-47.3" transform="translate(709.878 524.862)" fill="#97e4b7"/>
      <path id="Trazado_175" data-name="Trazado 175" d="M208.271,145.248,152.982,82.51a308.933,308.933,0,0,0-43.594,47.3l67.144,49.879a225.079,225.079,0,0,1,31.738-34.443" transform="translate(768.651 579.784)" fill="#b1ebc8"/>
      <path id="Trazado_176" data-name="Trazado 176" d="M204.788,153.063,149.5,90.325a225.139,225.139,0,0,0-31.746,34.443L184.9,174.647a141.25,141.25,0,0,1,19.89-21.584" transform="translate(827.43 634.698)" fill="#caf1da"/>
      <path id="Trazado_177" data-name="Trazado 177" d="M193.261,169.612a57.545,57.545,0,0,1,8.043-8.733L146.016,98.141a141.4,141.4,0,0,0-19.9,21.592Z" transform="translate(886.202 689.62)" fill="#e3f8eb"/>
      <path id="Trazado_178" data-name="Trazado 178" d="M201.343,94.789,134.214,44.918a896.684,896.684,0,0,0-95.222,160.6l76.046,34.836a812.569,812.569,0,0,1,86.3-145.567" transform="translate(273.99 315.631)" fill="#00c6a0"/>
      <path id="Trazado_179" data-name="Trazado 179" d="M201.9,101,134.77,51.131A813.044,813.044,0,0,0,48.466,196.7l76.046,34.828A728.384,728.384,0,0,1,201.9,101" transform="translate(340.562 359.289)" fill="#19cca9"/>
      <path id="Trazado_180" data-name="Trazado 180" d="M202.454,107.214,135.326,57.343A728.668,728.668,0,0,0,57.939,187.867L133.985,222.7a644.483,644.483,0,0,1,68.469-115.482" transform="translate(407.127 402.939)" fill="#32d1b3"/>
      <path id="Trazado_181" data-name="Trazado 181" d="M203.01,113.427,135.882,63.556a644.548,644.548,0,0,0-68.469,115.49l76.046,34.828A560.651,560.651,0,0,1,203.01,113.427" transform="translate(473.7 446.597)" fill="#4cd7bc"/>
      <path id="Trazado_182" data-name="Trazado 182" d="M203.566,119.64,136.438,69.769A560.651,560.651,0,0,0,76.887,170.217l76.038,34.828a477.548,477.548,0,0,1,50.641-85.405" transform="translate(540.272 490.255)" fill="#65ddc5"/>
      <path id="Trazado_183" data-name="Trazado 183" d="M204.123,125.852,136.994,75.981a477.026,477.026,0,0,0-50.633,85.405L162.4,196.223a392.672,392.672,0,0,1,41.723-70.371" transform="translate(606.844 533.905)" fill="#7ee2cf"/>
      <path id="Trazado_184" data-name="Trazado 184" d="M204.679,132.065,137.55,82.194a393.2,393.2,0,0,0-41.715,70.371l76.038,34.828a309.056,309.056,0,0,1,32.806-55.329" transform="translate(673.416 577.563)" fill="#97e8d8"/>
      <path id="Trazado_185" data-name="Trazado 185" d="M205.235,138.278,138.107,88.407a308.539,308.539,0,0,0-32.8,55.329l76.038,34.828a225.153,225.153,0,0,1,23.888-40.287" transform="translate(739.988 621.221)" fill="#b1eee1"/>
      <path id="Trazado_186" data-name="Trazado 186" d="M205.8,144.491,138.67,94.62a225.215,225.215,0,0,0-23.888,40.295l76.046,34.828a141.042,141.042,0,0,1,14.97-25.252" transform="translate(806.553 664.878)" fill="#caf3eb"/>
      <path id="Trazado_187" data-name="Trazado 187" d="M200.3,160.914a56.661,56.661,0,0,1,6.052-10.21l-67.128-49.871a141.035,141.035,0,0,0-14.97,25.252Z" transform="translate(873.118 708.536)" fill="#e3f9f4"/>
      <path id="Trazado_188" data-name="Trazado 188" d="M167.35,99.756,91.32,64.936A897.291,897.291,0,0,0,31.568,241.823l81.625,18.261A812.717,812.717,0,0,1,167.35,99.756" transform="translate(221.823 456.294)" fill="#00afcf"/>
      <path id="Trazado_189" data-name="Trazado 189" d="M171.924,104.1,95.894,69.273A813.487,813.487,0,0,0,41.737,229.609l81.625,18.253A728.957,728.957,0,0,1,171.924,104.1" transform="translate(293.279 486.769)" fill="#19b7d4"/>
      <path id="Trazado_190" data-name="Trazado 190" d="M176.491,108.432l-76.03-34.82a728.924,728.924,0,0,0-48.554,143.76l81.617,18.261a645.089,645.089,0,0,1,42.968-127.2" transform="translate(364.742 517.259)" fill="#32bfd9"/>
      <path id="Trazado_191" data-name="Trazado 191" d="M181.073,112.771l-76.03-34.82A645.02,645.02,0,0,0,62.075,205.144L143.7,223.405a561.325,561.325,0,0,1,37.373-110.634" transform="translate(436.19 547.748)" fill="#4cc7dd"/>
      <path id="Trazado_192" data-name="Trazado 192" d="M185.639,117.109l-76.03-34.82A560.769,560.769,0,0,0,72.244,192.923l81.625,18.253a476.488,476.488,0,0,1,31.77-94.066" transform="translate(507.646 578.231)" fill="#65cfe2"/>
      <path id="Trazado_193" data-name="Trazado 193" d="M190.213,121.447l-76.03-34.82a476.312,476.312,0,0,0-31.77,94.066l81.625,18.261a392.1,392.1,0,0,1,26.175-77.507" transform="translate(579.102 608.713)" fill="#7ed6e7"/>
      <path id="Trazado_194" data-name="Trazado 194" d="M194.788,125.785l-76.03-34.82a393.074,393.074,0,0,0-26.175,77.5l81.625,18.261a308.859,308.859,0,0,1,20.581-60.94" transform="translate(650.558 639.195)" fill="#97deec"/>
      <path id="Trazado_195" data-name="Trazado 195" d="M199.362,130.124,123.332,95.3a308.682,308.682,0,0,0-20.581,60.94L184.376,174.5a224.574,224.574,0,0,1,14.986-44.372" transform="translate(722.014 669.685)" fill="#b1e6f0"/>
      <path id="Trazado_196" data-name="Trazado 196" d="M203.936,134.462l-76.03-34.82a224.916,224.916,0,0,0-14.986,44.372l81.625,18.261a140.7,140.7,0,0,1,9.391-27.813" transform="translate(793.469 700.167)" fill="#caeef5"/>
      <path id="Trazado_197" data-name="Trazado 197" d="M204.714,150.046a56.755,56.755,0,0,1,3.8-11.246l-76.03-34.82a141.155,141.155,0,0,0-9.391,27.8Z" transform="translate(864.925 730.65)" fill="#e3f6fa"/>
      <path id="Trazado_198" data-name="Trazado 198" d="M132.164,105.231,50.555,86.978A897.818,897.818,0,0,0,28.891,272.422l83.64.891a812.843,812.843,0,0,1,19.634-168.082" transform="translate(203.012 611.179)" fill="#009bcc"/>
      <path id="Trazado_199" data-name="Trazado 199" d="M140.553,107.505,58.945,89.252A812.78,812.78,0,0,0,39.311,257.334l83.632.891a728.917,728.917,0,0,1,17.611-150.72" transform="translate(276.232 627.158)" fill="#19a5d1"/>
      <path id="Trazado_200" data-name="Trazado 200" d="M148.95,109.779,67.341,91.526A728.905,728.905,0,0,0,49.73,242.238l83.64.891a645.028,645.028,0,0,1,15.58-133.35" transform="translate(349.444 643.137)" fill="#32afd6"/>
      <path id="Trazado_201" data-name="Trazado 201" d="M157.339,112.053,75.73,93.8A645.028,645.028,0,0,0,60.15,227.15l83.64.891a560.6,560.6,0,0,1,13.549-115.988" transform="translate(422.664 659.116)" fill="#4cb9db"/>
      <path id="Trazado_202" data-name="Trazado 202" d="M165.728,114.328,84.119,96.075A561.147,561.147,0,0,0,70.57,212.063l83.64.883a476.711,476.711,0,0,1,11.519-98.618" transform="translate(495.883 675.102)" fill="#65c3e0"/>
      <path id="Trazado_203" data-name="Trazado 203" d="M174.109,116.6,92.5,98.349a476.7,476.7,0,0,0-11.51,98.618l83.632.891a392.828,392.828,0,0,1,9.488-81.256" transform="translate(569.103 691.081)" fill="#7ecce5"/>
      <path id="Trazado_204" data-name="Trazado 204" d="M182.506,118.876,100.9,100.623a393.378,393.378,0,0,0-9.488,81.256l83.632.883a309.505,309.505,0,0,1,7.465-63.885" transform="translate(642.315 707.06)" fill="#97d6ea"/>
      <path id="Trazado_205" data-name="Trazado 205" d="M190.895,121.15,109.286,102.9a308.875,308.875,0,0,0-7.457,63.885l83.631.891a225.01,225.01,0,0,1,5.434-46.523" transform="translate(715.535 723.039)" fill="#b1e0ef"/>
      <path id="Trazado_206" data-name="Trazado 206" d="M199.291,123.424l-81.609-18.253a225.561,225.561,0,0,0-5.434,46.523l83.64.883a141.121,141.121,0,0,1,3.4-29.154" transform="translate(788.747 739.018)" fill="#caeaf4"/>
      <path id="Trazado_207" data-name="Trazado 207" d="M206.3,137.489a57.234,57.234,0,0,1,1.373-11.791l-81.609-18.253a140.564,140.564,0,0,0-3.4,29.154Z" transform="translate(861.967 754.997)" fill="#e3f4f9"/>
      <path id="Trazado_208" data-name="Trazado 208" d="M112.576,110.972l-83.615-.891a896.335,896.335,0,0,0,17.362,185.9l81.986-16.519a813.322,813.322,0,0,1-15.733-168.491" transform="translate(203.135 773.52)" fill="#0087c3"/>
      <path id="Trazado_209" data-name="Trazado 209" d="M122.989,111.083l-83.615-.891A812.225,812.225,0,0,0,55.106,278.683L137.1,262.164a729.163,729.163,0,0,1-14.111-151.081" transform="translate(276.338 774.3)" fill="#1993c9"/>
      <path id="Trazado_210" data-name="Trazado 210" d="M133.4,111.194,49.786,110.3A728.142,728.142,0,0,0,63.9,261.392l81.986-16.519A645.18,645.18,0,0,1,133.4,111.194" transform="translate(349.541 775.08)" fill="#329fcf"/>
      <path id="Trazado_211" data-name="Trazado 211" d="M143.815,111.3,60.2,110.413A644.533,644.533,0,0,0,72.681,244.092l81.994-16.519A560.42,560.42,0,0,1,143.815,111.3" transform="translate(422.75 775.853)" fill="#4cabd5"/>
      <path id="Trazado_212" data-name="Trazado 212" d="M154.228,111.415l-83.615-.891a560.42,560.42,0,0,0,10.86,116.269l81.994-16.519a476.257,476.257,0,0,1-9.239-98.858" transform="translate(495.953 776.633)" fill="#65b7db"/>
      <path id="Trazado_213" data-name="Trazado 213" d="M164.648,111.526l-83.623-.891a477.353,477.353,0,0,0,9.239,98.858l81.994-16.511a392.832,392.832,0,0,1-7.609-81.456" transform="translate(569.157 777.413)" fill="#7ec2e0"/>
      <path id="Trazado_214" data-name="Trazado 214" d="M175.054,111.636l-83.615-.891A392.78,392.78,0,0,0,99.048,192.2l81.994-16.519a308.664,308.664,0,0,1-5.988-64.046" transform="translate(642.366 778.186)" fill="#97cee6"/>
      <path id="Trazado_215" data-name="Trazado 215" d="M185.467,111.747l-83.615-.891a309.215,309.215,0,0,0,5.98,64.046l81.994-16.519a225.059,225.059,0,0,1-4.359-46.636" transform="translate(715.568 778.966)" fill="#b1daec"/>
      <path id="Trazado_216" data-name="Trazado 216" d="M195.888,111.858l-83.624-.891a224.509,224.509,0,0,0,4.367,46.636l81.986-16.519a141.5,141.5,0,0,1-2.729-29.226" transform="translate(788.771 779.746)" fill="#cae6f2"/>
      <path id="Trazado_217" data-name="Trazado 217" d="M207.4,123.784a57.384,57.384,0,0,1-1.108-11.815l-83.615-.891a140.942,140.942,0,0,0,2.729,29.226Z" transform="translate(861.981 780.526)" fill="#e3f2f8"/>
      <path id="Trazado_218" data-name="Trazado 218" d="M113.077,131.179,31.1,147.7A897.073,897.073,0,0,0,86.733,325.926L163.5,292.719a812.96,812.96,0,0,1-50.425-161.54" transform="translate(218.527 921.772)" fill="#0074bf"/>
      <path id="Trazado_219" data-name="Trazado 219" d="M123.29,129.122,41.312,145.641A812.885,812.885,0,0,0,91.737,307.173l76.769-33.2A728.482,728.482,0,0,1,123.29,129.122" transform="translate(290.292 907.318)" fill="#1982c5"/>
      <path id="Trazado_220" data-name="Trazado 220" d="M133.5,127.064,51.525,143.583A729.293,729.293,0,0,0,96.74,288.427l76.769-33.207A644.657,644.657,0,0,1,133.5,127.064" transform="translate(362.057 892.857)" fill="#3290cc"/>
      <path id="Trazado_221" data-name="Trazado 221" d="M143.723,125.006,61.737,141.525a645.871,645.871,0,0,0,40.006,128.156l76.769-33.207a561.219,561.219,0,0,1-34.788-111.469" transform="translate(433.815 878.396)" fill="#4c9dd2"/>
      <path id="Trazado_222" data-name="Trazado 222" d="M153.928,122.949,71.95,139.468a560.7,560.7,0,0,0,34.8,111.469l76.769-33.207a476.587,476.587,0,0,1-29.587-94.781" transform="translate(505.58 863.941)" fill="#65abd8"/>
      <path id="Trazado_223" data-name="Trazado 223" d="M164.141,120.891,82.163,137.41a476.511,476.511,0,0,0,29.587,94.773l76.769-33.207a392.228,392.228,0,0,1-24.377-78.085" transform="translate(577.345 849.48)" fill="#7eb9df"/>
      <path id="Trazado_224" data-name="Trazado 224" d="M174.354,118.833,92.376,135.352a393.089,393.089,0,0,0,24.377,78.085l76.769-33.207a308.97,308.97,0,0,1-19.168-61.4" transform="translate(649.11 835.019)" fill="#97c7e5"/>
      <path id="Trazado_225" data-name="Trazado 225" d="M184.567,116.776,102.589,133.3a308.968,308.968,0,0,0,19.168,61.4l76.769-33.207a224.852,224.852,0,0,1-13.959-44.709" transform="translate(720.875 820.565)" fill="#b1d4eb"/>
      <path id="Trazado_226" data-name="Trazado 226" d="M194.78,114.718,112.8,131.237a225.016,225.016,0,0,0,13.959,44.709l76.761-33.207a141.408,141.408,0,0,1-8.741-28.022" transform="translate(792.64 806.104)" fill="#cae2f2"/>
      <path id="Trazado_227" data-name="Trazado 227" d="M208.532,123.987a57.224,57.224,0,0,1-3.54-11.326l-81.978,16.511a141.263,141.263,0,0,0,8.749,28.022Z" transform="translate(864.398 791.649)" fill="#e3f0f8"/>
      <path id="Trazado_228" data-name="Trazado 228" d="M114.8,151.3l-76.753,33.2a897.29,897.29,0,0,0,91.474,162.768l68.188-48.442A812.993,812.993,0,0,1,114.8,151.3" transform="translate(267.378 1063.131)" fill="#0040ba"/>
      <path id="Trazado_229" data-name="Trazado 229" d="M124.366,147.16l-76.753,33.2a812.718,812.718,0,0,0,82.909,147.525l68.188-48.442A728.372,728.372,0,0,1,124.366,147.16" transform="translate(334.568 1034.068)" fill="#1953c1"/>
      <path id="Trazado_230" data-name="Trazado 230" d="M133.928,143.024l-76.753,33.2a728.372,728.372,0,0,0,74.344,132.282l68.188-48.442a644.54,644.54,0,0,1-65.78-117.039" transform="translate(401.759 1005.005)" fill="#3266c8"/>
      <path id="Trazado_231" data-name="Trazado 231" d="M143.489,138.888l-76.753,33.2a645.015,645.015,0,0,0,65.78,117.039L200.7,240.684a560.451,560.451,0,0,1-57.215-101.8" transform="translate(468.942 975.942)" fill="#4c79ce"/>
      <path id="Trazado_232" data-name="Trazado 232" d="M153.051,134.752,76.3,167.951a560.932,560.932,0,0,0,57.215,101.8L201.7,221.305a476.856,476.856,0,0,1-48.651-86.553" transform="translate(536.133 946.879)" fill="#658cd5"/>
      <path id="Trazado_233" data-name="Trazado 233" d="M162.612,130.616l-76.753,33.2a477.193,477.193,0,0,0,48.651,86.561l68.18-48.442a393.078,393.078,0,0,1-40.078-71.318" transform="translate(603.323 917.816)" fill="#7e9edc"/>
      <path id="Trazado_234" data-name="Trazado 234" d="M172.175,126.48l-76.753,33.2a392.762,392.762,0,0,0,40.086,71.31l68.18-48.434a309.458,309.458,0,0,1-31.513-56.075" transform="translate(670.514 888.753)" fill="#97b1e3"/>
      <path id="Trazado_235" data-name="Trazado 235" d="M181.737,122.343l-76.753,33.2A309.184,309.184,0,0,0,136.5,211.617l68.188-48.442a224.624,224.624,0,0,1-22.949-40.832" transform="translate(737.704 859.683)" fill="#b1c4e9"/>
      <path id="Trazado_236" data-name="Trazado 236" d="M191.291,118.208l-76.745,33.2a225.076,225.076,0,0,0,22.941,40.832L205.675,143.8a141.014,141.014,0,0,1-14.384-25.59" transform="translate(804.895 830.627)" fill="#cad7f0"/>
      <path id="Trazado_237" data-name="Trazado 237" d="M206.679,124.418a57.206,57.206,0,0,1-5.819-10.347l-76.753,33.2A141.046,141.046,0,0,0,138.5,172.859Z" transform="translate(872.078 801.557)" fill="#e3eaf7"/>
      <path id="Trazado_238" data-name="Trazado 238" d="M117.638,169.663,49.466,218.1A897.059,897.059,0,0,0,172.782,358.286L229.4,296.728A812.5,812.5,0,0,1,117.638,169.663" transform="translate(347.589 1192.193)" fill="#0229ba"/>
      <path id="Trazado_239" data-name="Trazado 239" d="M126.13,163.629,57.958,212.055A812.958,812.958,0,0,0,169.724,339.12l56.637-61.558A729.179,729.179,0,0,1,126.13,163.629" transform="translate(407.261 1149.793)" fill="#1b3ec1"/>
      <path id="Trazado_240" data-name="Trazado 240" d="M134.624,157.6,66.452,206.03A728.714,728.714,0,0,0,166.675,319.963L223.3,258.405A645.362,645.362,0,0,1,134.624,157.6" transform="translate(466.947 1107.4)" fill="#3453c8"/>
      <path id="Trazado_241" data-name="Trazado 241" d="M143.117,151.562,74.945,200a644.521,644.521,0,0,0,88.672,100.8l56.629-61.558a560.017,560.017,0,0,1-77.13-87.677" transform="translate(526.626 1065)" fill="#4d68ce"/>
      <path id="Trazado_242" data-name="Trazado 242" d="M151.609,145.528,83.437,193.962a560.8,560.8,0,0,0,77.13,87.677l56.621-61.558a477.011,477.011,0,0,1-65.579-74.553" transform="translate(586.297 1022.6)" fill="#667dd5"/>
      <path id="Trazado_243" data-name="Trazado 243" d="M160.1,139.494,91.93,187.928a477,477,0,0,0,65.579,74.545l56.621-61.558A392.866,392.866,0,0,1,160.1,139.494" transform="translate(645.976 980.2)" fill="#7f93dc"/>
      <path id="Trazado_244" data-name="Trazado 244" d="M168.595,133.461l-68.172,48.434a393.227,393.227,0,0,0,54.029,61.421l56.629-61.558a308.728,308.728,0,0,1-42.486-48.3" transform="translate(705.655 937.807)" fill="#98a8e3"/>
      <path id="Trazado_245" data-name="Trazado 245" d="M177.088,127.427l-68.172,48.426a308.368,308.368,0,0,0,42.486,48.3l56.621-61.558a225.306,225.306,0,0,1-30.935-35.166" transform="translate(765.334 895.408)" fill="#b1bde9"/>
      <path id="Trazado_246" data-name="Trazado 246" d="M185.581,121.393l-68.172,48.434a225.306,225.306,0,0,0,30.935,35.166l56.629-61.558a140.8,140.8,0,0,1-19.393-22.042" transform="translate(825.013 853.008)" fill="#cad2f0"/>
      <path id="Trazado_247" data-name="Trazado 247" d="M201.916,124.27a56.975,56.975,0,0,1-7.842-8.91L125.9,163.794a140.375,140.375,0,0,0,19.393,22.034Z" transform="translate(884.692 810.615)" fill="#e3e7f7"/>
      <path id="Trazado_248" data-name="Trazado 248" d="M121.457,185.478l-56.613,61.55A897.012,897.012,0,0,0,214.617,358.512L257.2,286.528a812.447,812.447,0,0,1-135.742-101.05" transform="translate(455.648 1303.322)" fill="#4d22b3"/>
      <path id="Trazado_249" data-name="Trazado 249" d="M128.51,177.81,71.9,239.36A812.561,812.561,0,0,0,207.647,340.4l42.582-71.984A728.434,728.434,0,0,1,128.51,177.81" transform="translate(505.208 1249.44)" fill="#5f38bb"/>
      <path id="Trazado_250" data-name="Trazado 250" d="M135.563,170.142,78.95,231.692A729.092,729.092,0,0,0,200.669,322.3l42.59-71.985a645.141,645.141,0,0,1-107.7-80.172" transform="translate(554.768 1195.558)" fill="#704ec2"/>
      <path id="Trazado_251" data-name="Trazado 251" d="M142.615,162.475,86,224.025a645.079,645.079,0,0,0,107.7,80.164l42.59-71.985a560.679,560.679,0,0,1-93.673-69.729" transform="translate(604.321 1141.684)" fill="#8263ca"/>
      <path id="Trazado_252" data-name="Trazado 252" d="M149.668,154.807,93.055,216.349a560.23,560.23,0,0,0,93.673,69.729l42.59-71.985a476.666,476.666,0,0,1-79.65-59.286" transform="translate(653.881 1087.802)" fill="#9379d1"/>
      <path id="Trazado_253" data-name="Trazado 253" d="M156.721,147.139l-56.613,61.55a476.666,476.666,0,0,0,79.65,59.286l42.582-71.993a392.481,392.481,0,0,1-65.619-48.843" transform="translate(703.442 1033.92)" fill="#a58fd9"/>
      <path id="Trazado_254" data-name="Trazado 254" d="M163.774,139.472l-56.613,61.55a392.919,392.919,0,0,0,65.619,48.843l42.59-71.985a308.956,308.956,0,0,1-51.6-38.408" transform="translate(753.002 980.046)" fill="#b6a5e0"/>
      <path id="Trazado_255" data-name="Trazado 255" d="M170.827,131.8l-56.613,61.55a309.12,309.12,0,0,0,51.6,38.4l42.59-71.985A225.164,225.164,0,0,1,170.827,131.8" transform="translate(802.562 926.164)" fill="#c8bae8"/>
      <path id="Trazado_256" data-name="Trazado 256" d="M177.88,124.137l-56.613,61.55a225.165,225.165,0,0,0,37.574,27.966l42.59-71.993a140.707,140.707,0,0,1-23.551-17.523" transform="translate(852.122 872.289)" fill="#d9d0ef"/>
      <path id="Trazado_257" data-name="Trazado 257" d="M194.453,123.557a56.577,56.577,0,0,1-9.52-7.088l-56.613,61.55a140.645,140.645,0,0,0,23.543,17.523Z" transform="translate(901.683 818.408)" fill="#ebe6f7"/>
      <path id="Trazado_258" data-name="Trazado 258" d="M126.089,198.049,83.515,270.018a895.928,895.928,0,0,0,169.671,77.917l26.689-79.265a812.8,812.8,0,0,1-153.786-70.62" transform="translate(586.846 1391.656)" fill="#7524af"/>
      <path id="Trazado_259" data-name="Trazado 259" d="M131.4,189.082,88.818,261.051a812.372,812.372,0,0,0,153.794,70.62L269.3,252.406a728.964,728.964,0,0,1-137.9-63.324" transform="translate(624.109 1328.647)" fill="#833ab7"/>
      <path id="Trazado_260" data-name="Trazado 260" d="M136.705,180.116,94.123,252.085a728.461,728.461,0,0,0,137.9,63.324l26.689-79.265a644.794,644.794,0,0,1-122.008-56.027" transform="translate(661.386 1265.644)" fill="#904fbf"/>
      <path id="Trazado_261" data-name="Trazado 261" d="M142.009,171.15,99.427,243.119a644.86,644.86,0,0,0,122.016,56.027l26.689-79.265A560.939,560.939,0,0,1,142.009,171.15" transform="translate(698.656 1202.641)" fill="#9e65c7"/>
      <path id="Trazado_262" data-name="Trazado 262" d="M147.307,162.183,104.733,234.16a560.844,560.844,0,0,0,106.115,48.723l26.689-79.265a477.269,477.269,0,0,1-90.23-41.434" transform="translate(735.941 1139.632)" fill="#ac7bcf"/>
      <path id="Trazado_263" data-name="Trazado 263" d="M152.618,153.216l-42.582,71.977a477.022,477.022,0,0,0,90.238,41.426l26.689-79.265a392.937,392.937,0,0,1-74.344-34.138" transform="translate(773.204 1076.622)" fill="#b990d6"/>
      <path id="Trazado_264" data-name="Trazado 264" d="M157.923,144.25l-42.582,71.969a392.663,392.663,0,0,0,74.344,34.138l26.689-79.265a308.743,308.743,0,0,1-58.451-26.842" transform="translate(810.481 1013.62)" fill="#c7a6de"/>
      <path id="Trazado_265" data-name="Trazado 265" d="M163.228,135.284l-42.582,71.969A308.515,308.515,0,0,0,179.1,234.094l26.689-79.265a225.347,225.347,0,0,1-42.558-19.545" transform="translate(847.759 950.617)" fill="#d5bce6"/>
      <path id="Trazado_266" data-name="Trazado 266" d="M168.525,126.317l-42.574,71.969a224.2,224.2,0,0,0,42.566,19.545l26.689-79.265a141.066,141.066,0,0,1-26.681-12.249" transform="translate(885.036 887.608)" fill="#e2d1ee"/>
      <path id="Trazado_267" data-name="Trazado 267" d="M184.625,122.3a56.663,56.663,0,0,1-10.788-4.953l-42.582,71.977a140.751,140.751,0,0,0,26.681,12.241Z" transform="translate(922.306 824.605)" fill="#f0e7f6"/>
      <path id="Trazado_268" data-name="Trazado 268" d="M131.341,206.827,104.66,286.076a896.663,896.663,0,0,0,182.161,40.937l9.632-83.086a813.062,813.062,0,0,1-165.112-37.1" transform="translate(735.428 1453.338)" fill="#a92bbc"/>
      <path id="Trazado_269" data-name="Trazado 269" d="M134.666,196.954,107.985,276.2a812.031,812.031,0,0,0,165.1,37.1l9.632-83.078a729.1,729.1,0,0,1-148.055-33.271" transform="translate(758.792 1383.962)" fill="#b140c3"/>
      <path id="Trazado_270" data-name="Trazado 270" d="M137.99,187.08l-26.681,79.249A728.5,728.5,0,0,0,259.356,299.6l9.624-83.086A645.064,645.064,0,0,1,137.99,187.08" transform="translate(782.149 1314.579)" fill="#ba55c9"/>
      <path id="Trazado_271" data-name="Trazado 271" d="M141.314,177.207l-26.681,79.249a643.994,643.994,0,0,0,130.99,29.434l9.624-83.086a560.552,560.552,0,0,1-113.933-25.6" transform="translate(805.506 1245.203)" fill="#c26ad0"/>
      <path id="Trazado_272" data-name="Trazado 272" d="M144.639,167.334l-26.681,79.249a560.5,560.5,0,0,0,113.925,25.606l9.632-83.086a477.048,477.048,0,0,1-96.876-21.769" transform="translate(828.871 1175.827)" fill="#cb7fd7"/>
      <path id="Trazado_273" data-name="Trazado 273" d="M147.963,157.46l-26.681,79.249a476.407,476.407,0,0,0,96.868,21.769l9.632-83.086a392.943,392.943,0,0,1-79.819-17.932" transform="translate(852.228 1106.444)" fill="#d393dd"/>
      <path id="Trazado_274" data-name="Trazado 274" d="M151.288,147.587l-26.681,79.249a392.481,392.481,0,0,0,79.811,17.94l9.624-83.086a308.919,308.919,0,0,1-62.754-14.1" transform="translate(875.592 1037.068)" fill="#dca8e4"/>
      <path id="Trazado_275" data-name="Trazado 275" d="M154.612,137.713l-26.681,79.249a308.381,308.381,0,0,0,62.754,14.1l9.624-83.086a224.948,224.948,0,0,1-45.7-10.266" transform="translate(898.949 967.685)" fill="#e4bdeb"/>
      <path id="Trazado_276" data-name="Trazado 276" d="M157.937,127.84l-26.681,79.249a224.825,224.825,0,0,0,45.7,10.266l9.624-83.086a140.862,140.862,0,0,1-28.64-6.43" transform="translate(922.313 898.31)" fill="#edd2f1"/>
      <path id="Trazado_277" data-name="Trazado 277" d="M172.844,120.567a56.794,56.794,0,0,1-11.583-2.6L134.58,197.223a140.739,140.739,0,0,0,28.64,6.43Z" transform="translate(945.67 828.927)" fill="#f5e7f8"/>
      <path id="Trazado_278" data-name="Trazado 278" d="M136.981,211.428l-9.624,83.07a896.748,896.748,0,0,0,186.7,2.167l-7.858-83.278a812.279,812.279,0,0,1-169.214-1.959" transform="translate(894.916 1485.668)" fill="#c82db3"/>
      <path id="Trazado_279" data-name="Trazado 279" d="M138.18,201.08l-9.624,83.07a812.841,812.841,0,0,0,169.214,1.959l-7.858-83.27A728.363,728.363,0,0,1,138.18,201.08" transform="translate(903.341 1412.954)" fill="#cd42bb"/>
      <path id="Trazado_280" data-name="Trazado 280" d="M139.379,190.731l-9.624,83.07a728.916,728.916,0,0,0,151.731,1.758l-7.858-83.27a644.473,644.473,0,0,1-134.249-1.557" transform="translate(911.766 1340.234)" fill="#d357c2"/>
      <path id="Trazado_281" data-name="Trazado 281" d="M140.578,180.382l-9.624,83.07A645.026,645.026,0,0,0,265.2,265.009l-7.858-83.27a561.1,561.1,0,0,1-116.766-1.356" transform="translate(920.191 1267.513)" fill="#d86bca"/>
      <path id="Trazado_282" data-name="Trazado 282" d="M141.777,170.033l-9.624,83.07a560.545,560.545,0,0,0,116.766,1.349l-7.858-83.27a477.2,477.2,0,0,1-99.284-1.148" transform="translate(928.616 1194.793)" fill="#de80d1"/>
      <path id="Trazado_283" data-name="Trazado 283" d="M142.976,159.684l-9.624,83.07a477.2,477.2,0,0,0,99.284,1.148l-7.858-83.27a392.73,392.73,0,0,1-81.8-.947" transform="translate(937.042 1122.072)" fill="#e395d9"/>
      <path id="Trazado_284" data-name="Trazado 284" d="M144.175,149.336l-9.624,83.07a393.275,393.275,0,0,0,81.8.947l-7.858-83.27a308.83,308.83,0,0,1-64.319-.747" transform="translate(945.467 1049.358)" fill="#e9aae0"/>
      <path id="Trazado_285" data-name="Trazado 285" d="M145.374,138.987l-9.624,83.07a308.814,308.814,0,0,0,64.319.738l-7.858-83.27a224.919,224.919,0,0,1-46.836-.538" transform="translate(953.892 976.638)" fill="#eebee8"/>
      <path id="Trazado_286" data-name="Trazado 286" d="M146.573,128.638l-9.624,83.07a224.919,224.919,0,0,0,46.836.538l-7.858-83.27a140.439,140.439,0,0,1-29.354-.337" transform="translate(962.317 903.917)" fill="#f4d3ef"/>
      <path id="Trazado_287" data-name="Trazado 287" d="M159.644,118.425a57.1,57.1,0,0,1-11.872-.136l-9.624,83.07a140.445,140.445,0,0,0,29.354.337Z" transform="translate(970.742 831.196)" fill="#f9e8f7"/>
      <path id="Trazado_288" data-name="Trazado 288" d="M149.635,240.771l7.858,83.254a896.911,896.911,0,0,0,183.068-36.7l-25-79.819a812.838,812.838,0,0,1-165.923,33.263" transform="translate(1051.459 1458.123)" fill="#d2278d"/>
      <path id="Trazado_289" data-name="Trazado 289" d="M148.656,227.392l7.858,83.254a812.948,812.948,0,0,0,165.923-33.263l-25-79.819a728.941,728.941,0,0,1-148.785,29.828" transform="translate(1044.58 1388.248)" fill="#d63c98"/>
      <path id="Trazado_290" data-name="Trazado 290" d="M147.678,214.013l7.858,83.254A728.87,728.87,0,0,0,304.314,267.44l-25-79.819a644.969,644.969,0,0,1-131.64,26.392" transform="translate(1037.708 1318.38)" fill="#db52a3"/>
      <path id="Trazado_291" data-name="Trazado 291" d="M146.7,200.634l7.858,83.254A645.077,645.077,0,0,0,286.2,257.5l-25-79.819A560.35,560.35,0,0,1,146.7,200.634" transform="translate(1030.828 1248.506)" fill="#df67af"/>
      <path id="Trazado_292" data-name="Trazado 292" d="M145.72,187.254l7.858,83.254a560.35,560.35,0,0,0,114.495-22.957l-25-79.819a476.373,476.373,0,0,1-97.349,19.521" transform="translate(1023.949 1178.631)" fill="#e47cba"/>
      <path id="Trazado_293" data-name="Trazado 293" d="M144.741,173.868l7.858,83.254A476.915,476.915,0,0,0,249.949,237.6l-25-79.811a393.648,393.648,0,0,1-80.212,16.078" transform="translate(1017.07 1108.763)" fill="#e892c5"/>
      <path id="Trazado_294" data-name="Trazado 294" d="M143.762,160.488l7.858,83.254a392.938,392.938,0,0,0,80.2-16.086l-25-79.811a309.044,309.044,0,0,1-63.067,12.642" transform="translate(1010.191 1038.888)" fill="#eda7d0"/>
      <path id="Trazado_295" data-name="Trazado 295" d="M142.783,147.109l7.858,83.254a309.044,309.044,0,0,0,63.067-12.642l-25-79.819a224.952,224.952,0,0,1-45.921,9.207" transform="translate(1003.312 969.014)" fill="#f1bcdc"/>
      <path id="Trazado_296" data-name="Trazado 296" d="M141.8,133.729l7.858,83.254a224.952,224.952,0,0,0,45.921-9.207l-25-79.819a141.064,141.064,0,0,1-28.784,5.771" transform="translate(996.432 899.139)" fill="#f6d2e7"/>
      <path id="Trazado_297" data-name="Trazado 297" d="M152.457,118.014a56.478,56.478,0,0,1-11.631,2.336l7.858,83.254a140.912,140.912,0,0,0,28.768-5.771Z" transform="translate(989.56 829.264)" fill="#fae7f2"/>
      <path id="Trazado_298" data-name="Trazado 298" d="M170.3,266.17l25,79.8a896.494,896.494,0,0,0,171.437-73.959l-41.049-72.876A812.739,812.739,0,0,1,170.3,266.17" transform="translate(1196.669 1399.308)" fill="#e5276f"/>
      <path id="Trazado_299" data-name="Trazado 299" d="M167.186,250.171l25,79.8a813.24,813.24,0,0,0,155.383-67.032l-41.049-72.884a728.306,728.306,0,0,1-139.33,60.113" transform="translate(1174.787 1335.505)" fill="#e83c7d"/>
      <path id="Trazado_300" data-name="Trazado 300" d="M164.072,234.165l25,79.8A728.306,728.306,0,0,0,328.4,253.855l-41.049-72.876a644.329,644.329,0,0,1-123.276,53.186" transform="translate(1152.906 1271.708)" fill="#ea528b"/>
      <path id="Trazado_301" data-name="Trazado 301" d="M160.959,218.16l25,79.8a645.345,645.345,0,0,0,123.276-53.186L268.181,171.9A560.868,560.868,0,0,1,160.959,218.16" transform="translate(1131.031 1207.919)" fill="#ed679a"/>
      <path id="Trazado_302" data-name="Trazado 302" d="M157.845,202.153l25,79.8A560.868,560.868,0,0,0,290.063,235.7l-41.049-72.875a477.125,477.125,0,0,1-91.169,39.331" transform="translate(1109.15 1144.122)" fill="#ef7ca8"/>
      <path id="Trazado_303" data-name="Trazado 303" d="M154.731,186.147l25,79.8A477.125,477.125,0,0,0,270.9,226.619l-41.049-72.876a393.164,393.164,0,0,1-75.115,32.4" transform="translate(1087.268 1080.325)" fill="#f292b6"/>
      <path id="Trazado_304" data-name="Trazado 304" d="M151.617,170.141l25,79.8a393.164,393.164,0,0,0,75.115-32.4l-41.049-72.876a309.2,309.2,0,0,1-59.061,25.477" transform="translate(1065.387 1016.529)" fill="#f4a7c4"/>
      <path id="Trazado_305" data-name="Trazado 305" d="M148.5,154.143l25,79.8a308.717,308.717,0,0,0,59.061-25.485l-41.049-72.875A224.989,224.989,0,0,1,148.5,154.143" transform="translate(1043.505 952.732)" fill="#f7bcd3"/>
      <path id="Trazado_306" data-name="Trazado 306" d="M145.389,138.137l25,79.8a224.989,224.989,0,0,0,43.008-18.558l-41.049-72.876a141.013,141.013,0,0,1-26.954,11.631" transform="translate(1021.623 888.936)" fill="#f9d2e1"/>
      <path id="Trazado_307" data-name="Trazado 307" d="M153.175,117.427a56.832,56.832,0,0,1-10.9,4.7l25,79.8A141.013,141.013,0,0,0,194.225,190.3Z" transform="translate(999.742 825.139)" fill="#fce7ef"/>
      <path id="Trazado_308" data-name="Trazado 308" d="M189.648,284.8l41.041,72.86A896.237,896.237,0,0,0,383,249.673l-55.3-62.746A813.047,813.047,0,0,1,189.648,284.8" transform="translate(1332.624 1313.504)" fill="#f22540"/>
      <path id="Trazado_309" data-name="Trazado 309" d="M184.535,266.874l41.041,72.859a812.659,812.659,0,0,0,138.045-97.871l-55.3-62.754a728.925,728.925,0,0,1-123.79,87.765" transform="translate(1296.696 1258.568)" fill="#f33b53"/>
      <path id="Trazado_310" data-name="Trazado 310" d="M179.422,248.944,220.463,321.8a728.925,728.925,0,0,0,123.79-87.765l-55.3-62.746a645.028,645.028,0,0,1-109.526,77.652" transform="translate(1260.767 1203.639)" fill="#f55066"/>
      <path id="Trazado_311" data-name="Trazado 311" d="M174.31,231.013l41.041,72.859a644.635,644.635,0,0,0,109.518-77.652l-55.3-62.746a560.991,560.991,0,0,1-95.262,67.538" transform="translate(1224.846 1148.711)" fill="#f66679"/>
      <path id="Trazado_312" data-name="Trazado 312" d="M169.2,213.081l41.041,72.859A560.976,560.976,0,0,0,305.5,218.4l-55.3-62.746a477.088,477.088,0,0,1-81,57.424" transform="translate(1188.918 1093.775)" fill="#f77b8c"/>
      <path id="Trazado_313" data-name="Trazado 313" d="M164.084,195.157l41.041,72.86a476.638,476.638,0,0,0,81-57.424l-55.3-62.754a392.635,392.635,0,0,1-66.735,47.318" transform="translate(1152.99 1038.839)" fill="#f9919e"/>
      <path id="Trazado_314" data-name="Trazado 314" d="M158.971,177.226l41.041,72.859a393.361,393.361,0,0,0,66.735-47.31l-55.3-62.754a308.6,308.6,0,0,1-52.471,37.2" transform="translate(1117.062 983.91)" fill="#faa6b1"/>
      <path id="Trazado_315" data-name="Trazado 315" d="M153.858,159.3,194.9,232.155a308.6,308.6,0,0,0,52.471-37.2l-55.3-62.746A225.033,225.033,0,0,1,153.858,159.3" transform="translate(1081.134 928.982)" fill="#fbbcc4"/>
      <path id="Trazado_316" data-name="Trazado 316" d="M148.745,141.365l41.041,72.86a225.033,225.033,0,0,0,38.208-27.091l-55.3-62.746a140.672,140.672,0,0,1-23.944,16.977" transform="translate(1045.205 874.053)" fill="#fdd1d7"/>
      <path id="Trazado_317" data-name="Trazado 317" d="M153.312,116.57a57.45,57.45,0,0,1-9.68,6.871L184.673,196.3a141.479,141.479,0,0,0,23.944-16.985Z" transform="translate(1009.277 819.117)" fill="#fee7ea"/>
    </g>
  </g>
</svg>
